<svg xmlns="http://www.w3.org/2000/svg" viewBox="0 0 1200 900" width="1200" height="900" role="img" preserveAspectRatio="xMidYMid slice">

  <defs>
    <linearGradient id="bg-dubai" x1="0" y1="0" x2="1" y2="1">
      <stop offset="0%" stop-color="#03180F"/>
      <stop offset="55%" stop-color="#073B29"/>
      <stop offset="100%" stop-color="#0D6A48"/>
    </linearGradient>
    <radialGradient id="glow-dubai" cx="0.72" cy="0.28" r="0.75">
      <stop offset="0%" stop-color="#D4AF37" stop-opacity="0.34"/>
      <stop offset="55%" stop-color="#D4AF37" stop-opacity="0.07"/>
      <stop offset="100%" stop-color="#D4AF37" stop-opacity="0"/>
    </radialGradient>
    <radialGradient id="vig-dubai" cx="0.5" cy="0.5" r="0.78">
      <stop offset="55%" stop-color="#000" stop-opacity="0"/>
      <stop offset="100%" stop-color="#000" stop-opacity="0.55"/>
    </radialGradient>
    <linearGradient id="sheen-dubai" x1="0" y1="0" x2="1" y2="0">
      <stop offset="0%" stop-color="#A9851E"/>
      <stop offset="45%" stop-color="#D4AF37"/>
      <stop offset="58%" stop-color="#F3E5BE"/>
      <stop offset="75%" stop-color="#D4AF37"/>
      <stop offset="100%" stop-color="#A9851E"/>
    </linearGradient>
    <filter id="grain-dubai" x="0" y="0" width="100%" height="100%">
      <feTurbulence type="fractalNoise" baseFrequency="0.9" numOctaves="4" seed="7"/>
      <feColorMatrix type="saturate" values="0"/>
    </filter>
    <filter id="soft-dubai" x="-30%" y="-30%" width="160%" height="160%">
      <feGaussianBlur stdDeviation="26"/>
    </filter>
  </defs>
  <rect width="1200" height="900" fill="url(#bg-dubai)"/>
  <rect width="1200" height="900" fill="url(#glow-dubai)"/>
<g fill="#F3E5BE" opacity="0.16"><rect x="36.0" y="594.0" width="60.0" height="144.0"/><rect x="108.0" y="504.0" width="48.0" height="234.0"/><rect x="168.0" y="621.0" width="72.0" height="117.0"/><rect x="252.0" y="432.0" width="54.0" height="306.0"/><rect x="324.0" y="558.0" width="60.0" height="180.0"/><rect x="396.0" y="324.0" width="42.0" height="414.0"/><rect x="456.0" y="522.0" width="66.0" height="216.0"/><rect x="540.0" y="468.0" width="48.0" height="270.0"/><rect x="624.0" y="576.0" width="72.0" height="162.0"/><rect x="708.0" y="378.0" width="45.6" height="360.0"/><rect x="780.0" y="540.0" width="60.0" height="198.0"/><rect x="864.0" y="477.0" width="54.0" height="261.0"/><rect x="948.0" y="585.0" width="66.0" height="153.0"/><rect x="1032.0" y="423.0" width="48.0" height="315.0"/><rect x="1116.0" y="549.0" width="60.0" height="189.0"/></g><path d="M 402 738 L 422.4 180 L 442.8 738 Z" fill="#D4AF37" opacity="0.2"/><g fill="none" stroke="#D4AF37" stroke-linecap="round"><path d="M 96 648 Q 600 270 1104 558"
      stroke-width="2" opacity="0.5" stroke-dasharray="2 16"/><path d="M 144 450 Q 576 144 1056 360"
      stroke-width="2.5" opacity="0.38" stroke-dasharray="2 16"/><path d="M 240 774 Q 660 468 1140 720"
      stroke-width="3" opacity="0.26" stroke-dasharray="2 16"/></g><circle cx="96" cy="648" r="7" fill="#D4AF37" opacity="0.8"/>
    <circle cx="96" cy="648" r="18" fill="none" stroke="#D4AF37" stroke-width="1.5" opacity="0.35"/><circle cx="600" cy="270" r="11" fill="#D4AF37" opacity="0.8"/>
    <circle cx="600" cy="270" r="26" fill="none" stroke="#D4AF37" stroke-width="1.5" opacity="0.35"/><circle cx="1104" cy="558" r="7" fill="#D4AF37" opacity="0.8"/>
    <circle cx="1104" cy="558" r="18" fill="none" stroke="#D4AF37" stroke-width="1.5" opacity="0.35"/><circle cx="240" cy="774" r="7" fill="#D4AF37" opacity="0.8"/>
    <circle cx="240" cy="774" r="18" fill="none" stroke="#D4AF37" stroke-width="1.5" opacity="0.35"/><circle cx="1056" cy="360" r="7" fill="#D4AF37" opacity="0.8"/>
    <circle cx="1056" cy="360" r="18" fill="none" stroke="#D4AF37" stroke-width="1.5" opacity="0.35"/>
  <rect width="1200" height="900" fill="url(#vig-dubai)"/>
  <rect width="1200" height="900" filter="url(#grain-dubai)" opacity="0.13" style="mix-blend-mode:overlay"/>
</svg>
