<svg xmlns="http://www.w3.org/2000/svg" viewBox="0 0 900 900" width="900" height="900" role="img" preserveAspectRatio="xMidYMid slice">

  <defs>
    <linearGradient id="bg-ricebasmati" x1="0" y1="0" x2="1" y2="1">
      <stop offset="0%" stop-color="#04231A"/>
      <stop offset="55%" stop-color="#073B29"/>
      <stop offset="100%" stop-color="#0A5238"/>
    </linearGradient>
    <radialGradient id="glow-ricebasmati" cx="0.72" cy="0.28" r="0.75">
      <stop offset="0%" stop-color="#D4AF37" stop-opacity="0.34"/>
      <stop offset="55%" stop-color="#D4AF37" stop-opacity="0.07"/>
      <stop offset="100%" stop-color="#D4AF37" stop-opacity="0"/>
    </radialGradient>
    <radialGradient id="vig-ricebasmati" cx="0.5" cy="0.5" r="0.78">
      <stop offset="55%" stop-color="#000" stop-opacity="0"/>
      <stop offset="100%" stop-color="#000" stop-opacity="0.55"/>
    </radialGradient>
    <linearGradient id="sheen-ricebasmati" x1="0" y1="0" x2="1" y2="0">
      <stop offset="0%" stop-color="#A9851E"/>
      <stop offset="45%" stop-color="#D4AF37"/>
      <stop offset="58%" stop-color="#F3E5BE"/>
      <stop offset="75%" stop-color="#D4AF37"/>
      <stop offset="100%" stop-color="#A9851E"/>
    </linearGradient>
    <filter id="grain-ricebasmati" x="0" y="0" width="100%" height="100%">
      <feTurbulence type="fractalNoise" baseFrequency="0.9" numOctaves="4" seed="7"/>
      <feColorMatrix type="saturate" values="0"/>
    </filter>
    <filter id="soft-ricebasmati" x="-30%" y="-30%" width="160%" height="160%">
      <feGaussianBlur stdDeviation="26"/>
    </filter>
  </defs>
  <rect width="900" height="900" fill="url(#bg-ricebasmati)"/>
  <rect width="900" height="900" fill="url(#glow-ricebasmati)"/>
<g><ellipse cx="232.7" cy="288.9" rx="28.7" ry="3.9" fill="#D4AF37" opacity="0.24" transform="rotate(-7.6 232.7 288.9)"/><ellipse cx="648.6" cy="184.2" rx="22.8" ry="3.1" fill="#F3E5BE" opacity="0.17" transform="rotate(-60.4 648.6 184.2)"/><ellipse cx="280.2" cy="546.5" rx="43.1" ry="5.8" fill="#F3E5BE" opacity="0.42" transform="rotate(73.2 280.2 546.5)"/><ellipse cx="786.8" cy="356.2" rx="32.5" ry="4.4" fill="#F3E5BE" opacity="0.29" transform="rotate(-18.9 786.8 356.2)"/><ellipse cx="49.9" cy="648.3" rx="48.8" ry="6.6" fill="#F3E5BE" opacity="0.48" transform="rotate(63.1 49.9 648.3)"/><ellipse cx="272.7" cy="470.4" rx="38.9" ry="5.3" fill="#F3E5BE" opacity="0.37" transform="rotate(75.0 272.7 470.4)"/><ellipse cx="871.1" cy="395.3" rx="34.7" ry="4.7" fill="#F3E5BE" opacity="0.32" transform="rotate(56.5 871.1 395.3)"/><ellipse cx="832.2" cy="512.0" rx="41.2" ry="5.6" fill="#D4AF37" opacity="0.39" transform="rotate(-69.8 832.2 512.0)"/><ellipse cx="752.6" cy="486.7" rx="39.8" ry="5.4" fill="#F3E5BE" opacity="0.38" transform="rotate(-30.4 752.6 486.7)"/><ellipse cx="179.0" cy="720.4" rx="52.9" ry="7.2" fill="#F3E5BE" opacity="0.53" transform="rotate(-12.7 179.0 720.4)"/><ellipse cx="344.1" cy="876.6" rx="61.6" ry="8.3" fill="#F3E5BE" opacity="0.64" transform="rotate(-20.5 344.1 876.6)"/><ellipse cx="424.2" cy="396.2" rx="34.7" ry="4.7" fill="#F3E5BE" opacity="0.32" transform="rotate(-47.2 424.2 396.2)"/><ellipse cx="916.6" cy="753.7" rx="54.7" ry="7.4" fill="#F3E5BE" opacity="0.55" transform="rotate(65.2 916.6 753.7)"/><ellipse cx="484.6" cy="214.1" rx="24.5" ry="3.3" fill="#F3E5BE" opacity="0.19" transform="rotate(-71.2 484.6 214.1)"/><ellipse cx="538.3" cy="531.9" rx="42.3" ry="5.7" fill="#D4AF37" opacity="0.41" transform="rotate(65.7 538.3 531.9)"/><ellipse cx="25.9" cy="443.9" rx="37.4" ry="5.1" fill="#F3E5BE" opacity="0.35" transform="rotate(-31.3 25.9 443.9)"/><ellipse cx="706.5" cy="249.0" rx="26.5" ry="3.6" fill="#F3E5BE" opacity="0.22" transform="rotate(-63.8 706.5 249.0)"/><ellipse cx="822.8" cy="468.1" rx="38.7" ry="5.2" fill="#F3E5BE" opacity="0.36" transform="rotate(23.6 822.8 468.1)"/><ellipse cx="398.7" cy="491.9" rx="40.1" ry="5.4" fill="#F3E5BE" opacity="0.38" transform="rotate(19.6 398.7 491.9)"/><ellipse cx="-23.8" cy="423.3" rx="36.2" ry="4.9" fill="#F3E5BE" opacity="0.33" transform="rotate(49.2 -23.8 423.3)"/><ellipse cx="632.0" cy="735.6" rx="53.7" ry="7.3" fill="#F3E5BE" opacity="0.54" transform="rotate(-64.0 632.0 735.6)"/><ellipse cx="340.1" cy="815.8" rx="58.2" ry="7.9" fill="#D4AF37" opacity="0.60" transform="rotate(-76.1 340.1 815.8)"/><ellipse cx="444.5" cy="774.6" rx="55.9" ry="7.6" fill="#F3E5BE" opacity="0.57" transform="rotate(5.3 444.5 774.6)"/><ellipse cx="205.4" cy="411.1" rx="35.6" ry="4.8" fill="#F3E5BE" opacity="0.33" transform="rotate(-77.0 205.4 411.1)"/><ellipse cx="669.2" cy="791.9" rx="56.9" ry="7.7" fill="#F3E5BE" opacity="0.58" transform="rotate(-21.1 669.2 791.9)"/><ellipse cx="573.0" cy="670.5" rx="50.1" ry="6.8" fill="#F3E5BE" opacity="0.50" transform="rotate(1.4 573.0 670.5)"/><ellipse cx="703.6" cy="291.9" rx="28.9" ry="3.9" fill="#F3E5BE" opacity="0.25" transform="rotate(70.7 703.6 291.9)"/><ellipse cx="67.4" cy="259.1" rx="27.0" ry="3.7" fill="#F3E5BE" opacity="0.22" transform="rotate(76.7 67.4 259.1)"/><ellipse cx="465.3" cy="326.8" rx="30.8" ry="4.2" fill="#D4AF37" opacity="0.27" transform="rotate(-67.4 465.3 326.8)"/><ellipse cx="838.7" cy="392.6" rx="34.5" ry="4.7" fill="#F3E5BE" opacity="0.31" transform="rotate(-35.9 838.7 392.6)"/><ellipse cx="795.7" cy="698.0" rx="51.6" ry="7.0" fill="#F3E5BE" opacity="0.52" transform="rotate(-27.2 795.7 698.0)"/><ellipse cx="294.5" cy="324.3" rx="30.7" ry="4.2" fill="#F3E5BE" opacity="0.27" transform="rotate(-41.9 294.5 324.3)"/><ellipse cx="613.1" cy="240.4" rx="26.0" ry="3.5" fill="#F3E5BE" opacity="0.21" transform="rotate(66.8 613.1 240.4)"/><ellipse cx="516.3" cy="560.3" rx="43.9" ry="5.9" fill="#F3E5BE" opacity="0.43" transform="rotate(-56.6 516.3 560.3)"/><ellipse cx="311.8" cy="577.1" rx="44.8" ry="6.1" fill="#F3E5BE" opacity="0.44" transform="rotate(-36.9 311.8 577.1)"/><ellipse cx="502.9" cy="283.7" rx="28.4" ry="3.8" fill="#D4AF37" opacity="0.24" transform="rotate(29.7 502.9 283.7)"/><ellipse cx="324.0" cy="341.2" rx="31.6" ry="4.3" fill="#F3E5BE" opacity="0.28" transform="rotate(54.2 324.0 341.2)"/><ellipse cx="303.7" cy="396.4" rx="34.7" ry="4.7" fill="#F3E5BE" opacity="0.32" transform="rotate(20.1 303.7 396.4)"/><ellipse cx="820.3" cy="456.6" rx="38.1" ry="5.2" fill="#F3E5BE" opacity="0.36" transform="rotate(-70.0 820.3 456.6)"/><ellipse cx="629.0" cy="723.8" rx="53.1" ry="7.2" fill="#F3E5BE" opacity="0.53" transform="rotate(59.8 629.0 723.8)"/><ellipse cx="793.9" cy="352.3" rx="32.3" ry="4.4" fill="#F3E5BE" opacity="0.29" transform="rotate(23.4 793.9 352.3)"/><ellipse cx="658.2" cy="910.2" rx="63.5" ry="8.6" fill="#F3E5BE" opacity="0.66" transform="rotate(-42.0 658.2 910.2)"/><ellipse cx="299.6" cy="921.6" rx="64.1" ry="8.7" fill="#D4AF37" opacity="0.67" transform="rotate(-64.8 299.6 921.6)"/><ellipse cx="213.3" cy="870.5" rx="61.3" ry="8.3" fill="#F3E5BE" opacity="0.63" transform="rotate(-1.2 213.3 870.5)"/><ellipse cx="283.3" cy="589.9" rx="45.6" ry="6.2" fill="#F3E5BE" opacity="0.45" transform="rotate(-0.8 283.3 589.9)"/><ellipse cx="773.1" cy="836.3" rx="59.4" ry="8.0" fill="#F3E5BE" opacity="0.61" transform="rotate(-10.2 773.1 836.3)"/><ellipse cx="436.8" cy="872.7" rx="61.4" ry="8.3" fill="#F3E5BE" opacity="0.63" transform="rotate(-57.1 436.8 872.7)"/><ellipse cx="481.3" cy="606.6" rx="46.5" ry="6.3" fill="#F3E5BE" opacity="0.46" transform="rotate(68.2 481.3 606.6)"/><ellipse cx="493.5" cy="619.1" rx="47.2" ry="6.4" fill="#F3E5BE" opacity="0.46" transform="rotate(29.0 493.5 619.1)"/><ellipse cx="710.3" cy="527.4" rx="42.1" ry="5.7" fill="#D4AF37" opacity="0.40" transform="rotate(25.5 710.3 527.4)"/><ellipse cx="441.5" cy="861.9" rx="60.8" ry="8.2" fill="#F3E5BE" opacity="0.63" transform="rotate(-62.3 441.5 861.9)"/><ellipse cx="690.1" cy="524.6" rx="41.9" ry="5.7" fill="#F3E5BE" opacity="0.40" transform="rotate(-70.5 690.1 524.6)"/><ellipse cx="-28.0" cy="533.7" rx="42.4" ry="5.7" fill="#F3E5BE" opacity="0.41" transform="rotate(-27.3 -28.0 533.7)"/><ellipse cx="731.8" cy="733.1" rx="53.6" ry="7.3" fill="#F3E5BE" opacity="0.54" transform="rotate(-30.5 731.8 733.1)"/><ellipse cx="266.6" cy="500.8" rx="40.6" ry="5.5" fill="#F3E5BE" opacity="0.39" transform="rotate(70.7 266.6 500.8)"/><ellipse cx="57.2" cy="868.2" rx="61.1" ry="8.3" fill="#F3E5BE" opacity="0.63" transform="rotate(41.1 57.2 868.2)"/><ellipse cx="498.5" cy="478.1" rx="39.3" ry="5.3" fill="#D4AF37" opacity="0.37" transform="rotate(52.8 498.5 478.1)"/><ellipse cx="937.7" cy="284.1" rx="28.4" ry="3.9" fill="#F3E5BE" opacity="0.24" transform="rotate(33.8 937.7 284.1)"/><ellipse cx="111.9" cy="633.1" rx="48.0" ry="6.5" fill="#F3E5BE" opacity="0.47" transform="rotate(28.7 111.9 633.1)"/><ellipse cx="173.0" cy="404.8" rx="35.2" ry="4.8" fill="#F3E5BE" opacity="0.32" transform="rotate(30.2 173.0 404.8)"/><ellipse cx="713.9" cy="367.9" rx="33.1" ry="4.5" fill="#F3E5BE" opacity="0.30" transform="rotate(-56.5 713.9 367.9)"/><ellipse cx="645.5" cy="734.1" rx="53.6" ry="7.3" fill="#F3E5BE" opacity="0.54" transform="rotate(-24.7 645.5 734.1)"/><ellipse cx="-5.5" cy="420.6" rx="36.1" ry="4.9" fill="#F3E5BE" opacity="0.33" transform="rotate(66.4 -5.5 420.6)"/><ellipse cx="102.9" cy="305.8" rx="29.7" ry="4.0" fill="#D4AF37" opacity="0.26" transform="rotate(-12.5 102.9 305.8)"/><ellipse cx="495.1" cy="421.5" rx="36.1" ry="4.9" fill="#F3E5BE" opacity="0.33" transform="rotate(-25.0 495.1 421.5)"/><ellipse cx="128.4" cy="859.9" rx="60.7" ry="8.2" fill="#F3E5BE" opacity="0.63" transform="rotate(64.5 128.4 859.9)"/><ellipse cx="472.5" cy="417.4" rx="35.9" ry="4.9" fill="#F3E5BE" opacity="0.33" transform="rotate(-61.9 472.5 417.4)"/><ellipse cx="148.1" cy="638.9" rx="48.3" ry="6.5" fill="#F3E5BE" opacity="0.48" transform="rotate(71.5 148.1 638.9)"/><ellipse cx="626.3" cy="234.4" rx="25.7" ry="3.5" fill="#F3E5BE" opacity="0.21" transform="rotate(71.3 626.3 234.4)"/><ellipse cx="715.5" cy="206.9" rx="24.1" ry="3.3" fill="#F3E5BE" opacity="0.19" transform="rotate(73.2 715.5 206.9)"/><ellipse cx="-26.4" cy="629.0" rx="47.8" ry="6.5" fill="#D4AF37" opacity="0.47" transform="rotate(5.7 -26.4 629.0)"/><ellipse cx="104.6" cy="308.2" rx="29.8" ry="4.0" fill="#F3E5BE" opacity="0.26" transform="rotate(-68.9 104.6 308.2)"/><ellipse cx="200.7" cy="464.3" rx="38.5" ry="5.2" fill="#F3E5BE" opacity="0.36" transform="rotate(78.9 200.7 464.3)"/><ellipse cx="483.9" cy="340.5" rx="31.6" ry="4.3" fill="#F3E5BE" opacity="0.28" transform="rotate(-31.5 483.9 340.5)"/><ellipse cx="106.7" cy="408.6" rx="35.4" ry="4.8" fill="#F3E5BE" opacity="0.32" transform="rotate(42.4 106.7 408.6)"/><ellipse cx="637.2" cy="717.6" rx="52.7" ry="7.1" fill="#F3E5BE" opacity="0.53" transform="rotate(-26.5 637.2 717.6)"/><ellipse cx="313.9" cy="634.5" rx="48.1" ry="6.5" fill="#F3E5BE" opacity="0.48" transform="rotate(63.8 313.9 634.5)"/><ellipse cx="654.3" cy="334.8" rx="31.3" ry="4.2" fill="#D4AF37" opacity="0.28" transform="rotate(-39.4 654.3 334.8)"/><ellipse cx="198.2" cy="321.0" rx="30.5" ry="4.1" fill="#F3E5BE" opacity="0.27" transform="rotate(-72.9 198.2 321.0)"/><ellipse cx="-22.0" cy="570.7" rx="44.5" ry="6.0" fill="#F3E5BE" opacity="0.43" transform="rotate(-16.3 -22.0 570.7)"/><ellipse cx="310.9" cy="581.0" rx="45.1" ry="6.1" fill="#F3E5BE" opacity="0.44" transform="rotate(-6.4 310.9 581.0)"/><ellipse cx="810.4" cy="887.9" rx="62.3" ry="8.4" fill="#F3E5BE" opacity="0.64" transform="rotate(-7.7 810.4 887.9)"/><ellipse cx="759.9" cy="924.8" rx="64.3" ry="8.7" fill="#F3E5BE" opacity="0.67" transform="rotate(69.5 759.9 924.8)"/><ellipse cx="938.4" cy="897.4" rx="62.8" ry="8.5" fill="#F3E5BE" opacity="0.65" transform="rotate(-74.8 938.4 897.4)"/><ellipse cx="539.7" cy="201.3" rx="23.8" ry="3.2" fill="#D4AF37" opacity="0.19" transform="rotate(24.1 539.7 201.3)"/><ellipse cx="503.4" cy="922.4" rx="64.2" ry="8.7" fill="#F3E5BE" opacity="0.67" transform="rotate(77.2 503.4 922.4)"/><ellipse cx="561.8" cy="522.0" rx="41.8" ry="5.7" fill="#F3E5BE" opacity="0.40" transform="rotate(-78.6 561.8 522.0)"/><ellipse cx="350.3" cy="425.4" rx="36.4" ry="4.9" fill="#F3E5BE" opacity="0.34" transform="rotate(-51.7 350.3 425.4)"/><ellipse cx="323.4" cy="806.5" rx="57.7" ry="7.8" fill="#F3E5BE" opacity="0.59" transform="rotate(-74.6 323.4 806.5)"/><ellipse cx="552.2" cy="675.3" rx="50.3" ry="6.8" fill="#F3E5BE" opacity="0.50" transform="rotate(54.0 552.2 675.3)"/><ellipse cx="645.6" cy="264.9" rx="27.4" ry="3.7" fill="#F3E5BE" opacity="0.23" transform="rotate(13.2 645.6 264.9)"/><ellipse cx="918.9" cy="770.7" rx="55.7" ry="7.5" fill="#D4AF37" opacity="0.57" transform="rotate(32.5 918.9 770.7)"/><ellipse cx="691.8" cy="816.1" rx="58.2" ry="7.9" fill="#F3E5BE" opacity="0.60" transform="rotate(67.6 691.8 816.1)"/><ellipse cx="531.5" cy="898.8" rx="62.9" ry="8.5" fill="#F3E5BE" opacity="0.65" transform="rotate(-74.4 531.5 898.8)"/><ellipse cx="442.0" cy="624.1" rx="47.5" ry="6.4" fill="#F3E5BE" opacity="0.47" transform="rotate(31.7 442.0 624.1)"/><ellipse cx="452.0" cy="411.9" rx="35.6" ry="4.8" fill="#F3E5BE" opacity="0.33" transform="rotate(53.1 452.0 411.9)"/><ellipse cx="97.9" cy="231.7" rx="25.5" ry="3.5" fill="#F3E5BE" opacity="0.21" transform="rotate(20.9 97.9 231.7)"/><ellipse cx="-34.2" cy="269.3" rx="27.6" ry="3.7" fill="#F3E5BE" opacity="0.23" transform="rotate(68.8 -34.2 269.3)"/><ellipse cx="798.6" cy="292.7" rx="28.9" ry="3.9" fill="#D4AF37" opacity="0.25" transform="rotate(58.1 798.6 292.7)"/><ellipse cx="897.1" cy="380.6" rx="33.8" ry="4.6" fill="#F3E5BE" opacity="0.31" transform="rotate(-23.3 897.1 380.6)"/><ellipse cx="6.4" cy="869.1" rx="61.2" ry="8.3" fill="#F3E5BE" opacity="0.63" transform="rotate(-10.3 6.4 869.1)"/><ellipse cx="214.5" cy="211.7" rx="24.4" ry="3.3" fill="#F3E5BE" opacity="0.19" transform="rotate(2.8 214.5 211.7)"/><ellipse cx="551.2" cy="347.2" rx="32.0" ry="4.3" fill="#F3E5BE" opacity="0.28" transform="rotate(-37.3 551.2 347.2)"/><ellipse cx="481.5" cy="247.4" rx="26.4" ry="3.6" fill="#F3E5BE" opacity="0.22" transform="rotate(-65.3 481.5 247.4)"/><ellipse cx="252.5" cy="273.1" rx="27.8" ry="3.8" fill="#F3E5BE" opacity="0.23" transform="rotate(-61.9 252.5 273.1)"/><ellipse cx="354.9" cy="420.4" rx="36.1" ry="4.9" fill="#D4AF37" opacity="0.33" transform="rotate(45.2 354.9 420.4)"/><ellipse cx="-26.0" cy="549.8" rx="43.3" ry="5.9" fill="#F3E5BE" opacity="0.42" transform="rotate(-5.9 -26.0 549.8)"/><ellipse cx="118.0" cy="807.3" rx="57.7" ry="7.8" fill="#F3E5BE" opacity="0.59" transform="rotate(-37.3 118.0 807.3)"/><ellipse cx="567.1" cy="471.7" rx="38.9" ry="5.3" fill="#F3E5BE" opacity="0.37" transform="rotate(-57.7 567.1 471.7)"/><ellipse cx="216.7" cy="810.3" rx="57.9" ry="7.8" fill="#F3E5BE" opacity="0.59" transform="rotate(-19.4 216.7 810.3)"/><ellipse cx="193.8" cy="210.8" rx="24.3" ry="3.3" fill="#F3E5BE" opacity="0.19" transform="rotate(40.6 193.8 210.8)"/><ellipse cx="599.9" cy="877.7" rx="61.7" ry="8.4" fill="#F3E5BE" opacity="0.64" transform="rotate(31.4 599.9 877.7)"/><ellipse cx="416.0" cy="692.4" rx="51.3" ry="6.9" fill="#D4AF37" opacity="0.51" transform="rotate(69.8 416.0 692.4)"/><ellipse cx="447.8" cy="477.7" rx="39.3" ry="5.3" fill="#F3E5BE" opacity="0.37" transform="rotate(-48.8 447.8 477.7)"/><ellipse cx="632.1" cy="863.9" rx="60.9" ry="8.2" fill="#F3E5BE" opacity="0.63" transform="rotate(41.1 632.1 863.9)"/><ellipse cx="678.6" cy="386.7" rx="34.2" ry="4.6" fill="#F3E5BE" opacity="0.31" transform="rotate(78.1 678.6 386.7)"/><ellipse cx="320.6" cy="189.3" rx="23.1" ry="3.1" fill="#F3E5BE" opacity="0.18" transform="rotate(41.6 320.6 189.3)"/><ellipse cx="512.8" cy="571.1" rx="44.5" ry="6.0" fill="#F3E5BE" opacity="0.43" transform="rotate(16.6 512.8 571.1)"/><ellipse cx="709.7" cy="518.9" rx="41.6" ry="5.6" fill="#F3E5BE" opacity="0.40" transform="rotate(62.8 709.7 518.9)"/><ellipse cx="477.4" cy="623.2" rx="47.4" ry="6.4" fill="#D4AF37" opacity="0.47" transform="rotate(-53.4 477.4 623.2)"/></g>
  <rect width="900" height="900" fill="url(#vig-ricebasmati)"/>
  <rect width="900" height="900" filter="url(#grain-ricebasmati)" opacity="0.13" style="mix-blend-mode:overlay"/>
</svg>
