<svg xmlns="http://www.w3.org/2000/svg" viewBox="0 0 1200 900" width="1200" height="900" role="img" preserveAspectRatio="xMidYMid slice">

  <defs>
    <linearGradient id="bg-spices" x1="0" y1="0" x2="1" y2="1">
      <stop offset="0%" stop-color="#1A0E06"/>
      <stop offset="55%" stop-color="#2E1608"/>
      <stop offset="100%" stop-color="#4A2410"/>
    </linearGradient>
    <radialGradient id="glow-spices" cx="0.72" cy="0.28" r="0.75">
      <stop offset="0%" stop-color="#D4AF37" stop-opacity="0.34"/>
      <stop offset="55%" stop-color="#D4AF37" stop-opacity="0.07"/>
      <stop offset="100%" stop-color="#D4AF37" stop-opacity="0"/>
    </radialGradient>
    <radialGradient id="vig-spices" cx="0.5" cy="0.5" r="0.78">
      <stop offset="55%" stop-color="#000" stop-opacity="0"/>
      <stop offset="100%" stop-color="#000" stop-opacity="0.55"/>
    </radialGradient>
    <linearGradient id="sheen-spices" x1="0" y1="0" x2="1" y2="0">
      <stop offset="0%" stop-color="#A9851E"/>
      <stop offset="45%" stop-color="#D4AF37"/>
      <stop offset="58%" stop-color="#F3E5BE"/>
      <stop offset="75%" stop-color="#D4AF37"/>
      <stop offset="100%" stop-color="#A9851E"/>
    </linearGradient>
    <filter id="grain-spices" x="0" y="0" width="100%" height="100%">
      <feTurbulence type="fractalNoise" baseFrequency="0.9" numOctaves="4" seed="7"/>
      <feColorMatrix type="saturate" values="0"/>
    </filter>
    <filter id="soft-spices" x="-30%" y="-30%" width="160%" height="160%">
      <feGaussianBlur stdDeviation="26"/>
    </filter>
  </defs>
  <rect width="1200" height="900" fill="url(#bg-spices)"/>
  <rect width="1200" height="900" fill="url(#glow-spices)"/>
<g><path d="M 29.5 883.2 Q 388.3 465.2 747.0 883.2 Z" fill="#E8A13C" opacity="0.20"/>
    <ellipse cx="388.3" cy="883.2" rx="358.8" ry="46.0" fill="#E8A13C" opacity="0.14"/><path d="M -89.5 781.4 Q 119.1 524.0 327.7 781.4 Z" fill="#D4AF37" opacity="0.28"/>
    <ellipse cx="119.1" cy="781.4" rx="208.6" ry="28.3" fill="#D4AF37" opacity="0.20"/><path d="M -15.4 785.5 Q 316.9 383.2 649.3 785.5 Z" fill="#E8A13C" opacity="0.36"/>
    <ellipse cx="316.9" cy="785.5" rx="332.4" ry="44.3" fill="#E8A13C" opacity="0.26"/><path d="M 188.9 669.5 Q 496.7 373.7 804.5 669.5 Z" fill="#D4AF37" opacity="0.44"/>
    <ellipse cx="496.7" cy="669.5" rx="307.8" ry="32.5" fill="#D4AF37" opacity="0.32"/><path d="M 763.1 741.9 Q 1100.1 336.5 1437.1 741.9 Z" fill="#E8A13C" opacity="0.52"/>
    <ellipse cx="1100.1" cy="741.9" rx="337.0" ry="44.6" fill="#E8A13C" opacity="0.38"/><ellipse cx="600" cy="648" rx="552" ry="180" fill="#E8A13C" opacity="0.1" filter="url(#soft-spices)"/></g><g><ellipse cx="344.3" cy="752.3" rx="17.7" ry="4.9" fill="#D4AF37" opacity="0.57" transform="rotate(151.4 344.3 752.3)"/><ellipse cx="207.3" cy="666.3" rx="16.2" ry="4.5" fill="#E8A13C" opacity="0.52" transform="rotate(5.5 207.3 666.3)"/><ellipse cx="684.6" cy="227.2" rx="8.6" ry="2.4" fill="#E8A13C" opacity="0.25" transform="rotate(55.1 684.6 227.2)"/><ellipse cx="155.6" cy="434.3" rx="12.2" ry="3.4" fill="#E8A13C" opacity="0.38" transform="rotate(139.4 155.6 434.3)"/><ellipse cx="186.0" cy="681.2" rx="16.4" ry="4.6" fill="#E8A13C" opacity="0.53" transform="rotate(4.9 186.0 681.2)"/><ellipse cx="1174.0" cy="536.5" rx="13.9" ry="3.9" fill="#E8A13C" opacity="0.44" transform="rotate(103.8 1174.0 536.5)"/><ellipse cx="1062.6" cy="737.3" rx="17.4" ry="4.8" fill="#D4AF37" opacity="0.56" transform="rotate(89.4 1062.6 737.3)"/><ellipse cx="480.0" cy="323.2" rx="10.2" ry="2.8" fill="#E8A13C" opacity="0.31" transform="rotate(167.7 480.0 323.2)"/><ellipse cx="605.8" cy="185.4" rx="7.8" ry="2.2" fill="#E8A13C" opacity="0.23" transform="rotate(51.0 605.8 185.4)"/><ellipse cx="1104.0" cy="206.4" rx="8.2" ry="2.3" fill="#E8A13C" opacity="0.24" transform="rotate(20.4 1104.0 206.4)"/><ellipse cx="1091.1" cy="217.9" rx="8.4" ry="2.3" fill="#E8A13C" opacity="0.25" transform="rotate(162.8 1091.1 217.9)"/><ellipse cx="884.4" cy="270.3" rx="9.3" ry="2.6" fill="#E8A13C" opacity="0.28" transform="rotate(20.7 884.4 270.3)"/><ellipse cx="276.5" cy="636.2" rx="15.7" ry="4.3" fill="#D4AF37" opacity="0.50" transform="rotate(152.1 276.5 636.2)"/><ellipse cx="471.0" cy="406.8" rx="11.7" ry="3.2" fill="#E8A13C" opacity="0.36" transform="rotate(115.2 471.0 406.8)"/><ellipse cx="1187.1" cy="712.5" rx="17.0" ry="4.7" fill="#E8A13C" opacity="0.55" transform="rotate(12.3 1187.1 712.5)"/><ellipse cx="19.2" cy="308.3" rx="10.0" ry="2.8" fill="#E8A13C" opacity="0.30" transform="rotate(176.8 19.2 308.3)"/><ellipse cx="818.7" cy="332.7" rx="10.4" ry="2.9" fill="#E8A13C" opacity="0.32" transform="rotate(142.9 818.7 332.7)"/><ellipse cx="319.1" cy="445.9" rx="12.4" ry="3.4" fill="#E8A13C" opacity="0.39" transform="rotate(164.4 319.1 445.9)"/><ellipse cx="175.2" cy="818.9" rx="18.8" ry="5.2" fill="#D4AF37" opacity="0.61" transform="rotate(41.3 175.2 818.9)"/><ellipse cx="721.5" cy="563.1" rx="14.4" ry="4.0" fill="#E8A13C" opacity="0.46" transform="rotate(110.4 721.5 563.1)"/><ellipse cx="681.6" cy="184.8" rx="7.8" ry="2.2" fill="#E8A13C" opacity="0.23" transform="rotate(14.9 681.6 184.8)"/><ellipse cx="725.8" cy="786.4" rx="18.3" ry="5.1" fill="#E8A13C" opacity="0.59" transform="rotate(63.7 725.8 786.4)"/><ellipse cx="677.3" cy="896.1" rx="20.2" ry="5.6" fill="#E8A13C" opacity="0.66" transform="rotate(85.0 677.3 896.1)"/><ellipse cx="82.2" cy="362.1" rx="10.9" ry="3.0" fill="#E8A13C" opacity="0.34" transform="rotate(111.9 82.2 362.1)"/><ellipse cx="993.1" cy="459.7" rx="12.6" ry="3.5" fill="#D4AF37" opacity="0.39" transform="rotate(175.2 993.1 459.7)"/><ellipse cx="313.5" cy="328.7" rx="10.3" ry="2.9" fill="#E8A13C" opacity="0.31" transform="rotate(129.1 313.5 328.7)"/><ellipse cx="74.3" cy="342.3" rx="10.6" ry="2.9" fill="#E8A13C" opacity="0.32" transform="rotate(76.5 74.3 342.3)"/><ellipse cx="314.1" cy="236.9" rx="8.7" ry="2.4" fill="#E8A13C" opacity="0.26" transform="rotate(24.8 314.1 236.9)"/><ellipse cx="111.5" cy="808.9" rx="18.6" ry="5.2" fill="#E8A13C" opacity="0.61" transform="rotate(89.7 111.5 808.9)"/><ellipse cx="430.7" cy="569.3" rx="14.5" ry="4.0" fill="#E8A13C" opacity="0.46" transform="rotate(56.4 430.7 569.3)"/><ellipse cx="964.7" cy="481.2" rx="13.0" ry="3.6" fill="#D4AF37" opacity="0.41" transform="rotate(45.9 964.7 481.2)"/><ellipse cx="178.0" cy="417.3" rx="11.9" ry="3.3" fill="#E8A13C" opacity="0.37" transform="rotate(17.4 178.0 417.3)"/><ellipse cx="1037.9" cy="567.8" rx="14.5" ry="4.0" fill="#E8A13C" opacity="0.46" transform="rotate(143.5 1037.9 567.8)"/><ellipse cx="577.3" cy="582.6" rx="14.7" ry="4.1" fill="#E8A13C" opacity="0.47" transform="rotate(150.5 577.3 582.6)"/><ellipse cx="956.6" cy="814.3" rx="18.7" ry="5.2" fill="#E8A13C" opacity="0.61" transform="rotate(169.1 956.6 814.3)"/><ellipse cx="195.4" cy="165.6" rx="7.5" ry="2.1" fill="#E8A13C" opacity="0.22" transform="rotate(88.2 195.4 165.6)"/><ellipse cx="360.9" cy="586.3" rx="14.8" ry="4.1" fill="#D4AF37" opacity="0.47" transform="rotate(80.1 360.9 586.3)"/><ellipse cx="477.2" cy="273.8" rx="9.4" ry="2.6" fill="#E8A13C" opacity="0.28" transform="rotate(15.5 477.2 273.8)"/><ellipse cx="57.6" cy="144.6" rx="7.1" ry="2.0" fill="#E8A13C" opacity="0.20" transform="rotate(9.7 57.6 144.6)"/><ellipse cx="625.9" cy="883.6" rx="19.9" ry="5.5" fill="#E8A13C" opacity="0.65" transform="rotate(92.2 625.9 883.6)"/><ellipse cx="874.2" cy="739.2" rx="17.4" ry="4.8" fill="#E8A13C" opacity="0.57" transform="rotate(23.4 874.2 739.2)"/><ellipse cx="949.8" cy="317.0" rx="10.1" ry="2.8" fill="#E8A13C" opacity="0.31" transform="rotate(25.6 949.8 317.0)"/><ellipse cx="999.5" cy="481.5" rx="13.0" ry="3.6" fill="#D4AF37" opacity="0.41" transform="rotate(99.3 999.5 481.5)"/><ellipse cx="17.2" cy="697.3" rx="16.7" ry="4.6" fill="#E8A13C" opacity="0.54" transform="rotate(138.7 17.2 697.3)"/><ellipse cx="1036.8" cy="463.2" rx="12.7" ry="3.5" fill="#E8A13C" opacity="0.40" transform="rotate(51.9 1036.8 463.2)"/><ellipse cx="1005.7" cy="391.3" rx="11.4" ry="3.2" fill="#E8A13C" opacity="0.35" transform="rotate(140.3 1005.7 391.3)"/><ellipse cx="462.4" cy="464.9" rx="12.7" ry="3.5" fill="#E8A13C" opacity="0.40" transform="rotate(50.8 462.4 464.9)"/><ellipse cx="1206.4" cy="908.4" rx="20.4" ry="5.6" fill="#E8A13C" opacity="0.67" transform="rotate(176.2 1206.4 908.4)"/><ellipse cx="317.3" cy="126.8" rx="6.8" ry="1.9" fill="#D4AF37" opacity="0.19" transform="rotate(99.7 317.3 126.8)"/><ellipse cx="57.7" cy="777.0" rx="18.1" ry="5.0" fill="#E8A13C" opacity="0.59" transform="rotate(30.5 57.7 777.0)"/><ellipse cx="474.7" cy="171.9" rx="7.6" ry="2.1" fill="#E8A13C" opacity="0.22" transform="rotate(39.0 474.7 171.9)"/><ellipse cx="959.7" cy="244.4" rx="8.9" ry="2.5" fill="#E8A13C" opacity="0.26" transform="rotate(145.5 959.7 244.4)"/><ellipse cx="253.2" cy="426.9" rx="12.0" ry="3.3" fill="#E8A13C" opacity="0.37" transform="rotate(25.2 253.2 426.9)"/><ellipse cx="811.9" cy="395.6" rx="11.5" ry="3.2" fill="#E8A13C" opacity="0.36" transform="rotate(31.5 811.9 395.6)"/><ellipse cx="133.6" cy="392.3" rx="11.4" ry="3.2" fill="#D4AF37" opacity="0.35" transform="rotate(113.3 133.6 392.3)"/><ellipse cx="509.8" cy="138.3" rx="7.0" ry="1.9" fill="#E8A13C" opacity="0.20" transform="rotate(147.8 509.8 138.3)"/><ellipse cx="1204.7" cy="460.9" rx="12.6" ry="3.5" fill="#E8A13C" opacity="0.40" transform="rotate(90.6 1204.7 460.9)"/><ellipse cx="30.6" cy="825.2" rx="18.9" ry="5.2" fill="#E8A13C" opacity="0.62" transform="rotate(139.4 30.6 825.2)"/><ellipse cx="22.3" cy="775.2" rx="18.1" ry="5.0" fill="#E8A13C" opacity="0.59" transform="rotate(128.7 22.3 775.2)"/><ellipse cx="158.4" cy="623.2" rx="15.4" ry="4.3" fill="#E8A13C" opacity="0.49" transform="rotate(116.8 158.4 623.2)"/><ellipse cx="54.3" cy="196.1" rx="8.0" ry="2.2" fill="#D4AF37" opacity="0.23" transform="rotate(162.6 54.3 196.1)"/><ellipse cx="551.1" cy="846.8" rx="19.3" ry="5.3" fill="#E8A13C" opacity="0.63" transform="rotate(75.3 551.1 846.8)"/><ellipse cx="1170.2" cy="641.4" rx="15.7" ry="4.4" fill="#E8A13C" opacity="0.51" transform="rotate(66.4 1170.2 641.4)"/><ellipse cx="942.0" cy="735.1" rx="17.4" ry="4.8" fill="#E8A13C" opacity="0.56" transform="rotate(153.0 942.0 735.1)"/><ellipse cx="613.2" cy="268.2" rx="9.3" ry="2.6" fill="#E8A13C" opacity="0.28" transform="rotate(129.5 613.2 268.2)"/><ellipse cx="133.4" cy="391.0" rx="11.4" ry="3.2" fill="#E8A13C" opacity="0.35" transform="rotate(65.2 133.4 391.0)"/><ellipse cx="550.5" cy="773.1" rx="18.0" ry="5.0" fill="#D4AF37" opacity="0.59" transform="rotate(22.6 550.5 773.1)"/><ellipse cx="709.3" cy="467.7" rx="12.7" ry="3.5" fill="#E8A13C" opacity="0.40" transform="rotate(19.3 709.3 467.7)"/><ellipse cx="444.2" cy="367.2" rx="11.0" ry="3.0" fill="#E8A13C" opacity="0.34" transform="rotate(113.2 444.2 367.2)"/><ellipse cx="1059.4" cy="472.0" rx="12.8" ry="3.5" fill="#E8A13C" opacity="0.40" transform="rotate(49.7 1059.4 472.0)"/><ellipse cx="300.9" cy="637.5" rx="15.7" ry="4.3" fill="#E8A13C" opacity="0.50" transform="rotate(87.0 300.9 637.5)"/><ellipse cx="788.3" cy="713.3" rx="17.0" ry="4.7" fill="#E8A13C" opacity="0.55" transform="rotate(125.3 788.3 713.3)"/><ellipse cx="1202.4" cy="915.6" rx="20.5" ry="5.7" fill="#D4AF37" opacity="0.67" transform="rotate(2.0 1202.4 915.6)"/><ellipse cx="397.2" cy="519.6" rx="13.6" ry="3.8" fill="#E8A13C" opacity="0.43" transform="rotate(121.1 397.2 519.6)"/><ellipse cx="1044.6" cy="317.1" rx="10.1" ry="2.8" fill="#E8A13C" opacity="0.31" transform="rotate(18.0 1044.6 317.1)"/><ellipse cx="50.9" cy="264.9" rx="9.2" ry="2.6" fill="#E8A13C" opacity="0.28" transform="rotate(69.4 50.9 264.9)"/><ellipse cx="624.3" cy="770.0" rx="18.0" ry="5.0" fill="#E8A13C" opacity="0.58" transform="rotate(33.3 624.3 770.0)"/><ellipse cx="513.4" cy="401.4" rx="11.6" ry="3.2" fill="#E8A13C" opacity="0.36" transform="rotate(171.9 513.4 401.4)"/><ellipse cx="835.2" cy="387.0" rx="11.3" ry="3.1" fill="#D4AF37" opacity="0.35" transform="rotate(107.6 835.2 387.0)"/><ellipse cx="614.1" cy="523.1" rx="13.7" ry="3.8" fill="#E8A13C" opacity="0.43" transform="rotate(37.1 614.1 523.1)"/><ellipse cx="245.7" cy="119.5" rx="6.7" ry="1.9" fill="#E8A13C" opacity="0.19" transform="rotate(60.3 245.7 119.5)"/><ellipse cx="366.8" cy="833.2" rx="19.1" ry="5.3" fill="#E8A13C" opacity="0.62" transform="rotate(23.4 366.8 833.2)"/><ellipse cx="482.4" cy="484.5" rx="13.0" ry="3.6" fill="#E8A13C" opacity="0.41" transform="rotate(172.2 482.4 484.5)"/><ellipse cx="124.1" cy="336.2" rx="10.5" ry="2.9" fill="#E8A13C" opacity="0.32" transform="rotate(134.4 124.1 336.2)"/><ellipse cx="-1.1" cy="903.7" rx="20.3" ry="5.6" fill="#D4AF37" opacity="0.67" transform="rotate(43.6 -1.1 903.7)"/><ellipse cx="346.5" cy="131.6" rx="6.9" ry="1.9" fill="#E8A13C" opacity="0.19" transform="rotate(86.7 346.5 131.6)"/><ellipse cx="203.6" cy="773.6" rx="18.0" ry="5.0" fill="#E8A13C" opacity="0.59" transform="rotate(131.6 203.6 773.6)"/><ellipse cx="443.7" cy="143.8" rx="7.1" ry="2.0" fill="#E8A13C" opacity="0.20" transform="rotate(162.6 443.7 143.8)"/><ellipse cx="749.9" cy="527.0" rx="13.8" ry="3.8" fill="#E8A13C" opacity="0.44" transform="rotate(32.2 749.9 527.0)"/><ellipse cx="406.6" cy="899.5" rx="20.2" ry="5.6" fill="#E8A13C" opacity="0.66" transform="rotate(136.0 406.6 899.5)"/><ellipse cx="137.3" cy="149.2" rx="7.2" ry="2.0" fill="#D4AF37" opacity="0.21" transform="rotate(105.1 137.3 149.2)"/><ellipse cx="869.3" cy="695.5" rx="16.7" ry="4.6" fill="#E8A13C" opacity="0.54" transform="rotate(46.5 869.3 695.5)"/><ellipse cx="187.2" cy="829.7" rx="19.0" ry="5.3" fill="#E8A13C" opacity="0.62" transform="rotate(101.9 187.2 829.7)"/><ellipse cx="83.1" cy="645.8" rx="15.8" ry="4.4" fill="#E8A13C" opacity="0.51" transform="rotate(116.4 83.1 645.8)"/><ellipse cx="203.9" cy="658.2" rx="16.0" ry="4.4" fill="#E8A13C" opacity="0.52" transform="rotate(153.7 203.9 658.2)"/><ellipse cx="116.3" cy="490.1" rx="13.1" ry="3.6" fill="#E8A13C" opacity="0.41" transform="rotate(91.1 116.3 490.1)"/><ellipse cx="20.8" cy="890.1" rx="20.1" ry="5.6" fill="#D4AF37" opacity="0.66" transform="rotate(48.2 20.8 890.1)"/><ellipse cx="602.8" cy="636.1" rx="15.7" ry="4.3" fill="#E8A13C" opacity="0.50" transform="rotate(115.6 602.8 636.1)"/><ellipse cx="69.2" cy="211.9" rx="8.3" ry="2.3" fill="#E8A13C" opacity="0.24" transform="rotate(28.6 69.2 211.9)"/><ellipse cx="621.3" cy="350.7" rx="10.7" ry="3.0" fill="#E8A13C" opacity="0.33" transform="rotate(107.0 621.3 350.7)"/><ellipse cx="603.9" cy="897.2" rx="20.2" ry="5.6" fill="#E8A13C" opacity="0.66" transform="rotate(112.2 603.9 897.2)"/><ellipse cx="930.4" cy="884.6" rx="20.0" ry="5.5" fill="#E8A13C" opacity="0.65" transform="rotate(91.9 930.4 884.6)"/><ellipse cx="276.3" cy="523.9" rx="13.7" ry="3.8" fill="#D4AF37" opacity="0.43" transform="rotate(47.0 276.3 523.9)"/><ellipse cx="339.1" cy="200.5" rx="8.1" ry="2.2" fill="#E8A13C" opacity="0.24" transform="rotate(92.6 339.1 200.5)"/><ellipse cx="317.3" cy="688.8" rx="16.6" ry="4.6" fill="#E8A13C" opacity="0.53" transform="rotate(103.5 317.3 688.8)"/><ellipse cx="984.4" cy="562.8" rx="14.4" ry="4.0" fill="#E8A13C" opacity="0.46" transform="rotate(178.3 984.4 562.8)"/><ellipse cx="962.5" cy="572.0" rx="14.5" ry="4.0" fill="#E8A13C" opacity="0.46" transform="rotate(121.4 962.5 572.0)"/><ellipse cx="921.7" cy="917.3" rx="20.5" ry="5.7" fill="#E8A13C" opacity="0.67" transform="rotate(161.8 921.7 917.3)"/><ellipse cx="6.5" cy="301.8" rx="9.9" ry="2.7" fill="#D4AF37" opacity="0.30" transform="rotate(91.1 6.5 301.8)"/><ellipse cx="767.3" cy="561.3" rx="14.4" ry="4.0" fill="#E8A13C" opacity="0.46" transform="rotate(84.7 767.3 561.3)"/><ellipse cx="1084.8" cy="490.2" rx="13.1" ry="3.6" fill="#E8A13C" opacity="0.41" transform="rotate(136.8 1084.8 490.2)"/><ellipse cx="719.0" cy="800.2" rx="18.5" ry="5.1" fill="#E8A13C" opacity="0.60" transform="rotate(154.2 719.0 800.2)"/><ellipse cx="672.9" cy="338.9" rx="10.5" ry="2.9" fill="#E8A13C" opacity="0.32" transform="rotate(116.7 672.9 338.9)"/><ellipse cx="580.8" cy="277.3" rx="9.4" ry="2.6" fill="#E8A13C" opacity="0.28" transform="rotate(127.7 580.8 277.3)"/><ellipse cx="152.0" cy="399.2" rx="11.5" ry="3.2" fill="#D4AF37" opacity="0.36" transform="rotate(50.8 152.0 399.2)"/><ellipse cx="868.3" cy="743.1" rx="17.5" ry="4.8" fill="#E8A13C" opacity="0.57" transform="rotate(128.8 868.3 743.1)"/><ellipse cx="290.2" cy="160.5" rx="7.4" ry="2.1" fill="#E8A13C" opacity="0.21" transform="rotate(28.9 290.2 160.5)"/><ellipse cx="371.2" cy="388.3" rx="11.4" ry="3.1" fill="#E8A13C" opacity="0.35" transform="rotate(160.9 371.2 388.3)"/><ellipse cx="1047.0" cy="811.2" rx="18.7" ry="5.2" fill="#E8A13C" opacity="0.61" transform="rotate(120.1 1047.0 811.2)"/><ellipse cx="970.6" cy="748.2" rx="17.6" ry="4.9" fill="#E8A13C" opacity="0.57" transform="rotate(107.1 970.6 748.2)"/><ellipse cx="884.3" cy="232.4" rx="8.7" ry="2.4" fill="#D4AF37" opacity="0.26" transform="rotate(45.0 884.3 232.4)"/><ellipse cx="277.1" cy="839.2" rx="19.2" ry="5.3" fill="#E8A13C" opacity="0.63" transform="rotate(104.2 277.1 839.2)"/><ellipse cx="436.2" cy="891.0" rx="20.1" ry="5.6" fill="#E8A13C" opacity="0.66" transform="rotate(80.4 436.2 891.0)"/><ellipse cx="842.6" cy="653.7" rx="16.0" ry="4.4" fill="#E8A13C" opacity="0.51" transform="rotate(175.9 842.6 653.7)"/><ellipse cx="130.9" cy="547.6" rx="14.1" ry="3.9" fill="#E8A13C" opacity="0.45" transform="rotate(167.9 130.9 547.6)"/><ellipse cx="1042.1" cy="528.4" rx="13.8" ry="3.8" fill="#E8A13C" opacity="0.44" transform="rotate(55.9 1042.1 528.4)"/><ellipse cx="690.9" cy="803.1" rx="18.5" ry="5.1" fill="#D4AF37" opacity="0.60" transform="rotate(111.2 690.9 803.1)"/><ellipse cx="342.2" cy="295.9" rx="9.8" ry="2.7" fill="#E8A13C" opacity="0.29" transform="rotate(126.4 342.2 295.9)"/><ellipse cx="307.8" cy="235.0" rx="8.7" ry="2.4" fill="#E8A13C" opacity="0.26" transform="rotate(55.1 307.8 235.0)"/><ellipse cx="787.3" cy="505.0" rx="13.4" ry="3.7" fill="#E8A13C" opacity="0.42" transform="rotate(175.2 787.3 505.0)"/><ellipse cx="677.4" cy="773.9" rx="18.0" ry="5.0" fill="#E8A13C" opacity="0.59" transform="rotate(164.0 677.4 773.9)"/><ellipse cx="734.7" cy="207.9" rx="8.2" ry="2.3" fill="#E8A13C" opacity="0.24" transform="rotate(10.5 734.7 207.9)"/><ellipse cx="795.2" cy="423.3" rx="12.0" ry="3.3" fill="#D4AF37" opacity="0.37" transform="rotate(76.9 795.2 423.3)"/><ellipse cx="1064.2" cy="516.2" rx="13.6" ry="3.8" fill="#E8A13C" opacity="0.43" transform="rotate(29.9 1064.2 516.2)"/><ellipse cx="1199.4" cy="256.3" rx="9.1" ry="2.5" fill="#E8A13C" opacity="0.27" transform="rotate(34.3 1199.4 256.3)"/><ellipse cx="219.8" cy="913.7" rx="20.5" ry="5.7" fill="#E8A13C" opacity="0.67" transform="rotate(160.3 219.8 913.7)"/><ellipse cx="143.1" cy="451.6" rx="12.5" ry="3.4" fill="#E8A13C" opacity="0.39" transform="rotate(31.1 143.1 451.6)"/><ellipse cx="704.4" cy="867.6" rx="19.7" ry="5.4" fill="#E8A13C" opacity="0.64" transform="rotate(26.5 704.4 867.6)"/><ellipse cx="430.8" cy="786.6" rx="18.3" ry="5.1" fill="#D4AF37" opacity="0.59" transform="rotate(86.3 430.8 786.6)"/><ellipse cx="105.2" cy="703.8" rx="16.8" ry="4.7" fill="#E8A13C" opacity="0.54" transform="rotate(160.5 105.2 703.8)"/><ellipse cx="557.5" cy="455.2" rx="12.5" ry="3.5" fill="#E8A13C" opacity="0.39" transform="rotate(121.6 557.5 455.2)"/><ellipse cx="925.2" cy="652.8" rx="15.9" ry="4.4" fill="#E8A13C" opacity="0.51" transform="rotate(26.2 925.2 652.8)"/><ellipse cx="862.3" cy="900.1" rx="20.2" ry="5.6" fill="#E8A13C" opacity="0.66" transform="rotate(61.5 862.3 900.1)"/><ellipse cx="-12.5" cy="913.1" rx="20.5" ry="5.7" fill="#E8A13C" opacity="0.67" transform="rotate(92.1 -12.5 913.1)"/><ellipse cx="524.6" cy="825.7" rx="18.9" ry="5.2" fill="#D4AF37" opacity="0.62" transform="rotate(37.6 524.6 825.7)"/><ellipse cx="828.4" cy="662.8" rx="16.1" ry="4.5" fill="#E8A13C" opacity="0.52" transform="rotate(16.1 828.4 662.8)"/><ellipse cx="-0.7" cy="906.0" rx="20.3" ry="5.6" fill="#E8A13C" opacity="0.67" transform="rotate(108.8 -0.7 906.0)"/><ellipse cx="285.3" cy="317.0" rx="10.1" ry="2.8" fill="#E8A13C" opacity="0.31" transform="rotate(25.8 285.3 317.0)"/><ellipse cx="45.6" cy="612.1" rx="15.2" ry="4.2" fill="#E8A13C" opacity="0.49" transform="rotate(111.5 45.6 612.1)"/><ellipse cx="1172.5" cy="811.2" rx="18.7" ry="5.2" fill="#E8A13C" opacity="0.61" transform="rotate(8.7 1172.5 811.2)"/><ellipse cx="595.4" cy="608.4" rx="15.2" ry="4.2" fill="#D4AF37" opacity="0.49" transform="rotate(117.8 595.4 608.4)"/><ellipse cx="1026.4" cy="252.8" rx="9.0" ry="2.5" fill="#E8A13C" opacity="0.27" transform="rotate(92.6 1026.4 252.8)"/><ellipse cx="1100.5" cy="382.3" rx="11.3" ry="3.1" fill="#E8A13C" opacity="0.35" transform="rotate(120.4 1100.5 382.3)"/><ellipse cx="1131.9" cy="792.7" rx="18.4" ry="5.1" fill="#E8A13C" opacity="0.60" transform="rotate(167.5 1131.9 792.7)"/><ellipse cx="877.5" cy="872.6" rx="19.8" ry="5.5" fill="#E8A13C" opacity="0.65" transform="rotate(143.2 877.5 872.6)"/><ellipse cx="973.8" cy="862.3" rx="19.6" ry="5.4" fill="#E8A13C" opacity="0.64" transform="rotate(82.0 973.8 862.3)"/><ellipse cx="1153.3" cy="651.4" rx="15.9" ry="4.4" fill="#D4AF37" opacity="0.51" transform="rotate(162.9 1153.3 651.4)"/><ellipse cx="348.0" cy="714.1" rx="17.0" ry="4.7" fill="#E8A13C" opacity="0.55" transform="rotate(42.6 348.0 714.1)"/><ellipse cx="1168.3" cy="649.8" rx="15.9" ry="4.4" fill="#E8A13C" opacity="0.51" transform="rotate(71.8 1168.3 649.8)"/><ellipse cx="250.8" cy="728.1" rx="17.2" ry="4.8" fill="#E8A13C" opacity="0.56" transform="rotate(83.9 250.8 728.1)"/><ellipse cx="138.6" cy="176.9" rx="7.7" ry="2.1" fill="#E8A13C" opacity="0.22" transform="rotate(162.0 138.6 176.9)"/><ellipse cx="282.7" cy="263.4" rx="9.2" ry="2.5" fill="#E8A13C" opacity="0.27" transform="rotate(165.5 282.7 263.4)"/><ellipse cx="381.9" cy="765.7" rx="17.9" ry="5.0" fill="#D4AF37" opacity="0.58" transform="rotate(149.9 381.9 765.7)"/><ellipse cx="12.2" cy="191.5" rx="7.9" ry="2.2" fill="#E8A13C" opacity="0.23" transform="rotate(134.7 12.2 191.5)"/><ellipse cx="759.9" cy="250.3" rx="9.0" ry="2.5" fill="#E8A13C" opacity="0.27" transform="rotate(178.4 759.9 250.3)"/><ellipse cx="439.3" cy="871.0" rx="19.7" ry="5.5" fill="#E8A13C" opacity="0.65" transform="rotate(114.9 439.3 871.0)"/><ellipse cx="817.8" cy="807.1" rx="18.6" ry="5.2" fill="#E8A13C" opacity="0.61" transform="rotate(72.7 817.8 807.1)"/><ellipse cx="460.9" cy="729.3" rx="17.3" ry="4.8" fill="#E8A13C" opacity="0.56" transform="rotate(114.5 460.9 729.3)"/><ellipse cx="840.7" cy="203.5" rx="8.2" ry="2.3" fill="#D4AF37" opacity="0.24" transform="rotate(154.6 840.7 203.5)"/><ellipse cx="204.0" cy="903.3" rx="20.3" ry="5.6" fill="#E8A13C" opacity="0.67" transform="rotate(173.1 204.0 903.3)"/><ellipse cx="309.1" cy="818.3" rx="18.8" ry="5.2" fill="#E8A13C" opacity="0.61" transform="rotate(143.4 309.1 818.3)"/><ellipse cx="56.5" cy="274.4" rx="9.4" ry="2.6" fill="#E8A13C" opacity="0.28" transform="rotate(105.2 56.5 274.4)"/><ellipse cx="338.5" cy="406.5" rx="11.7" ry="3.2" fill="#E8A13C" opacity="0.36" transform="rotate(102.5 338.5 406.5)"/><ellipse cx="8.9" cy="115.3" rx="6.6" ry="1.8" fill="#E8A13C" opacity="0.18" transform="rotate(56.8 8.9 115.3)"/><ellipse cx="690.5" cy="232.5" rx="8.7" ry="2.4" fill="#D4AF37" opacity="0.26" transform="rotate(134.0 690.5 232.5)"/><ellipse cx="314.9" cy="809.4" rx="18.7" ry="5.2" fill="#E8A13C" opacity="0.61" transform="rotate(26.1 314.9 809.4)"/><ellipse cx="63.5" cy="821.2" rx="18.9" ry="5.2" fill="#E8A13C" opacity="0.62" transform="rotate(168.3 63.5 821.2)"/><ellipse cx="792.9" cy="561.4" rx="14.4" ry="4.0" fill="#E8A13C" opacity="0.46" transform="rotate(128.9 792.9 561.4)"/><ellipse cx="1101.8" cy="470.1" rx="12.8" ry="3.5" fill="#E8A13C" opacity="0.40" transform="rotate(164.4 1101.8 470.1)"/><ellipse cx="1067.5" cy="916.5" rx="20.5" ry="5.7" fill="#E8A13C" opacity="0.67" transform="rotate(107.7 1067.5 916.5)"/><ellipse cx="450.6" cy="423.0" rx="12.0" ry="3.3" fill="#D4AF37" opacity="0.37" transform="rotate(53.2 450.6 423.0)"/><ellipse cx="1040.9" cy="297.2" rx="9.8" ry="2.7" fill="#E8A13C" opacity="0.30" transform="rotate(107.4 1040.9 297.2)"/><ellipse cx="752.3" cy="788.8" rx="18.3" ry="5.1" fill="#E8A13C" opacity="0.60" transform="rotate(43.1 752.3 788.8)"/><ellipse cx="1116.7" cy="574.8" rx="14.6" ry="4.0" fill="#E8A13C" opacity="0.47" transform="rotate(30.4 1116.7 574.8)"/><ellipse cx="367.7" cy="576.6" rx="14.6" ry="4.0" fill="#E8A13C" opacity="0.47" transform="rotate(16.7 367.7 576.6)"/><ellipse cx="915.5" cy="768.6" rx="17.9" ry="5.0" fill="#E8A13C" opacity="0.58" transform="rotate(46.8 915.5 768.6)"/><ellipse cx="121.9" cy="719.1" rx="17.1" ry="4.7" fill="#D4AF37" opacity="0.55" transform="rotate(36.5 121.9 719.1)"/><ellipse cx="937.6" cy="227.0" rx="8.6" ry="2.4" fill="#E8A13C" opacity="0.25" transform="rotate(177.3 937.6 227.0)"/><ellipse cx="1208.8" cy="222.3" rx="8.5" ry="2.3" fill="#E8A13C" opacity="0.25" transform="rotate(150.3 1208.8 222.3)"/><ellipse cx="985.0" cy="268.0" rx="9.3" ry="2.6" fill="#E8A13C" opacity="0.28" transform="rotate(138.4 985.0 268.0)"/><ellipse cx="1044.9" cy="698.2" rx="16.7" ry="4.6" fill="#E8A13C" opacity="0.54" transform="rotate(137.1 1044.9 698.2)"/><ellipse cx="662.2" cy="700.3" rx="16.8" ry="4.6" fill="#E8A13C" opacity="0.54" transform="rotate(38.8 662.2 700.3)"/><ellipse cx="754.1" cy="166.5" rx="7.5" ry="2.1" fill="#D4AF37" opacity="0.22" transform="rotate(57.5 754.1 166.5)"/><ellipse cx="719.4" cy="443.1" rx="12.3" ry="3.4" fill="#E8A13C" opacity="0.38" transform="rotate(56.0 719.4 443.1)"/><ellipse cx="231.1" cy="841.0" rx="19.2" ry="5.3" fill="#E8A13C" opacity="0.63" transform="rotate(171.2 231.1 841.0)"/><ellipse cx="535.8" cy="212.6" rx="8.3" ry="2.3" fill="#E8A13C" opacity="0.24" transform="rotate(9.5 535.8 212.6)"/><ellipse cx="26.9" cy="680.7" rx="16.4" ry="4.5" fill="#E8A13C" opacity="0.53" transform="rotate(39.5 26.9 680.7)"/><ellipse cx="998.5" cy="268.6" rx="9.3" ry="2.6" fill="#E8A13C" opacity="0.28" transform="rotate(60.4 998.5 268.6)"/><ellipse cx="850.7" cy="421.0" rx="11.9" ry="3.3" fill="#D4AF37" opacity="0.37" transform="rotate(64.8 850.7 421.0)"/><ellipse cx="182.7" cy="327.4" rx="10.3" ry="2.9" fill="#E8A13C" opacity="0.31" transform="rotate(82.1 182.7 327.4)"/></g>
  <rect width="1200" height="900" fill="url(#vig-spices)"/>
  <rect width="1200" height="900" filter="url(#grain-spices)" opacity="0.13" style="mix-blend-mode:overlay"/>
</svg>
